<svg width="28" height="28" viewBox="0 0 28 28" fill="none" xmlns="http://www.w3.org/2000/svg">
<path d="M16.3333 10.85V14.2333H19.3667C19.6 14.2333 19.7167 14.4667 19.7167 14.7L19.25 16.9167C19.25 17.0333 19.0167 17.15 18.9 17.15H16.3333V25.6667H12.8333V17.2667H10.85C10.6167 17.2667 10.5 17.15 10.5 16.9167V14.7C10.5 14.4667 10.6167 14.35 10.85 14.35H12.8333V10.5C12.8333 8.51667 14.35 7 16.3333 7H19.4833C19.7167 7 19.8333 7.11667 19.8333 7.35V10.15C19.8333 10.3833 19.7167 10.5 19.4833 10.5H16.6833C16.45 10.5 16.3333 10.6167 16.3333 10.85Z" stroke="#0000FF" stroke-width="1.5" stroke-miterlimit="10" stroke-linecap="round"/>
<path d="M17.5 25.6667H10.5C4.66671 25.6667 2.33337 23.3333 2.33337 17.5V10.5C2.33337 4.66667 4.66671 2.33334 10.5 2.33334H17.5C23.3334 2.33334 25.6667 4.66667 25.6667 10.5V17.5C25.6667 23.3333 23.3334 25.6667 17.5 25.6667Z" stroke="#0000FF" stroke-width="1.5" stroke-linecap="round" stroke-linejoin="round"/>
</svg>
