<svg width="28" height="28" viewBox="0 0 28 28" fill="none" xmlns="http://www.w3.org/2000/svg">
<path d="M10.5 25.6667H17.5C23.3334 25.6667 25.6667 23.3333 25.6667 17.5V10.5C25.6667 4.66667 23.3334 2.33334 17.5 2.33334H10.5C4.66671 2.33334 2.33337 4.66667 2.33337 10.5V17.5C2.33337 23.3333 4.66671 25.6667 10.5 25.6667Z" stroke="#CF3F1B" stroke-width="1.5" stroke-linecap="round" stroke-linejoin="round"/>
<path d="M14 18.0833C16.2551 18.0833 18.0833 16.2552 18.0833 14C18.0833 11.7448 16.2551 9.91666 14 9.91666C11.7448 9.91666 9.91663 11.7448 9.91663 14C9.91663 16.2552 11.7448 18.0833 14 18.0833Z" stroke="#CF3F1B" stroke-width="1.5" stroke-linecap="round" stroke-linejoin="round"/>
<path d="M20.5755 8.16667H20.589" stroke="#CF3F1B" stroke-width="2" stroke-linecap="round" stroke-linejoin="round"/>
</svg>
