<svg width="28" height="28" viewBox="0 0 28 28" fill="none" xmlns="http://www.w3.org/2000/svg">
<path fill-rule="evenodd" clip-rule="evenodd" d="M20.1834 17.85C19.8334 18.0833 19.6 18.0833 19.3667 18.2C19.1334 18.2 19.0167 18.3167 18.9 18.4333C18.6667 18.4333 18.6667 18.6667 18.6667 18.7833C18.6667 18.9 18.6667 19.0167 18.55 19.1333C18.4334 19.25 18.2 19.25 17.9667 19.25C17.6167 19.25 17.15 19.25 16.6834 19.4833C16.45 19.6 16.2167 19.7167 15.9834 19.8333C15.5167 20.1833 15.05 20.4167 14.1167 20.4167C13.1834 20.4167 12.7167 20.0667 12.25 19.8333C12.0167 19.7167 11.7834 19.4833 11.55 19.4833C11.0834 19.3667 10.6167 19.25 10.2667 19.25C10.0334 19.25 9.80002 19.25 9.68336 19.1333C9.33336 19.0167 9.33336 18.9 9.33336 18.7833C9.33336 18.6667 9.33336 18.4333 9.10002 18.4333C8.98336 18.3167 8.75002 18.3167 8.63336 18.2C8.40002 18.0833 8.16669 18.0833 7.81669 17.85C7.46669 17.6167 7.70002 17.5 7.81669 17.3833C10.0334 16.3333 10.3834 14.5833 10.3834 14.4667C10.3834 14.35 10.3834 14.2333 10.2667 14.1167C10.15 14 9.80002 13.7667 9.45002 13.65C9.33336 13.5333 9.21669 13.5333 9.10002 13.4167C8.75002 13.1833 8.63336 12.95 8.75002 12.7167C8.86669 12.4833 8.98336 12.4833 9.21669 12.4833C9.33336 12.4833 9.33336 12.4833 9.45002 12.4833C9.68336 12.4833 9.91669 12.6 10.0334 12.7167C10.15 12.7167 10.2667 12.8333 10.3834 12.8333C10.3834 12.8333 10.3834 12.8333 10.5 12.8333C10.6167 12.8333 10.6167 12.8333 10.6167 12.6V12.4833C10.6167 12.1333 10.5 11.3167 10.6167 10.7333C10.7334 9.8 10.9667 9.21667 11.4334 8.86667C11.6667 8.63333 12.4834 7.81667 14.1167 7.81667C15.75 7.81667 16.5667 8.75 16.8 8.86667C17.15 9.33333 17.5 9.8 17.6167 10.7333C17.7334 11.4333 17.6167 12.1333 17.6167 12.6C17.6167 12.7167 17.6167 12.8333 17.7334 12.8333C17.7334 12.8333 17.7334 12.8333 17.85 12.8333C17.9667 12.8333 18.0834 12.7167 18.2 12.7167C18.4334 12.6 18.55 12.6 18.7834 12.4833C18.7834 12.4833 18.9 12.4833 19.0167 12.4833C19.25 12.4833 19.3667 12.6 19.4834 12.7167C19.6 12.95 19.4834 13.1833 19.1334 13.4167C19.0167 13.4167 18.9 13.5333 18.7834 13.65C18.55 13.8833 18.0834 14.1167 17.9667 14.1167C17.85 14.2333 17.85 14.35 17.85 14.4667C17.85 14.5833 18.2 16.2167 20.4167 17.3833C20.4167 17.5 20.65 17.6167 20.1834 17.85Z" stroke="#FFFF00" stroke-width="1.5" stroke-miterlimit="10" stroke-linejoin="round"/>
<path d="M14 25.6667C20.4434 25.6667 25.6667 20.4433 25.6667 14C25.6667 7.55668 20.4434 2.33334 14 2.33334C7.55672 2.33334 2.33337 7.55668 2.33337 14C2.33337 20.4433 7.55672 25.6667 14 25.6667Z" stroke="#FFFF00" stroke-width="1.5" stroke-miterlimit="10" stroke-linejoin="round"/>
</svg>
